# Blender v2.76 (sub 0) OBJ File: ''
# www.blender.org
mtllib plane.mtl
o Cube_Cube.001
v -10.723606 -0.033536 -2.135901
v -0.323145 0.543664 -9.487443
v -9.765589 -0.225625 -1.307506
v 0.626429 0.351005 -9.340840
v -2.726519 0.813550 8.882707
v 7.660888 1.323746 0.451468
v -1.787664 0.835603 9.089008
v 8.604355 1.412232 1.055673
vn -0.094200 -0.975200 -0.200500
vn 0.084000 -0.995800 0.037200
vn -0.056400 0.998400 -0.005200
vn -0.070300 0.997200 -0.023800
vn -0.219900 -0.943400 0.248100
vn 0.128600 0.973500 -0.189100
usemtl None
s off
f 2//1 4//1 3//1 1//1
f 4//2 8//2 7//2 3//2
f 8//3 6//3 5//3 7//3
f 6//4 2//4 1//4 5//4
f 1//5 3//5 7//5 5//5
f 6//6 8//6 4//6 2//6
